<mxfile host="app.diagrams.net" agent="Mozilla/5.0 (X11; Linux x86_64; rv:142.0) Gecko/20100101 Firefox/142.0" version="28.1.0">
  <diagram name="Página-1" id="yNtrUq_g8D0pvzZwIxcy">
    <mxGraphModel grid="1" page="1" gridSize="10" guides="1" tooltips="1" connect="1" arrows="1" fold="1" pageScale="1" pageWidth="827" pageHeight="1169" math="0" shadow="0">
      <root>
        <mxCell id="0" />
        <mxCell id="1" parent="0" />
        <mxCell id="hfvlFV7jpzGiQFUbrp5R-7" value="" style="swimlane;startSize=0;" vertex="1" parent="1">
          <mxGeometry x="460" y="-190" width="660" height="760" as="geometry" />
        </mxCell>
        <mxCell id="rLZH8Nn4CCLPOPYhZAGx-91" value="Sistema PlayTemuco" style="text;html=1;align=center;verticalAlign=middle;whiteSpace=wrap;rounded=0;fontSize=17;fontStyle=1" vertex="1" parent="hfvlFV7jpzGiQFUbrp5R-7">
          <mxGeometry x="230" width="210" height="30" as="geometry" />
        </mxCell>
        <object placeholders="1" c4Name="Aplicacion Web" c4Type="Tecnologias Frontend" c4Technology="Next.js (React + Typescript), TailwindCSS, shadcn/ui, React Query, React Hook Form + Zod, Google Maps API." c4Description="El frontend que corre en el navegador del usuario. Provee toda la UI/UX de la plataforma." label="&lt;font style=&quot;font-size: 16px&quot;&gt;&lt;b&gt;%c4Name%&lt;/b&gt;&lt;/font&gt;&lt;div&gt;[%c4Type%: %c4Technology%]&lt;/div&gt;&lt;br&gt;&lt;div&gt;&lt;font style=&quot;font-size: 11px&quot;&gt;&lt;font color=&quot;#E6E6E6&quot;&gt;%c4Description%&lt;/font&gt;&lt;/div&gt;" id="hfvlFV7jpzGiQFUbrp5R-17">
          <mxCell style="rounded=1;whiteSpace=wrap;html=1;fontSize=11;labelBackgroundColor=none;fillColor=#23A2D9;fontColor=#ffffff;align=center;arcSize=10;strokeColor=#0E7DAD;metaEdit=1;resizable=0;points=[[0.25,0,0],[0.5,0,0],[0.75,0,0],[1,0.25,0],[1,0.5,0],[1,0.75,0],[0.75,1,0],[0.5,1,0],[0.25,1,0],[0,0.75,0],[0,0.5,0],[0,0.25,0]];" vertex="1" parent="hfvlFV7jpzGiQFUbrp5R-7">
            <mxGeometry x="210" y="70" width="240" height="120" as="geometry" />
          </mxCell>
        </object>
        <mxCell id="hfvlFV7jpzGiQFUbrp5R-23" value="Muestra las localizaciones de las canchas en un mapa" style="text;html=1;align=center;verticalAlign=middle;whiteSpace=wrap;rounded=0;" vertex="1" parent="hfvlFV7jpzGiQFUbrp5R-7">
          <mxGeometry x="470" y="100" width="170" height="30" as="geometry" />
        </mxCell>
        <object placeholders="1" c4Name="Jugadores/Dueños de la Cancha" c4Type="Clientes" c4Description="Usuario que interactúa con la plataforma a través de un navegador." label="&lt;font style=&quot;font-size: 16px&quot;&gt;&lt;b&gt;%c4Name%&lt;/b&gt;&lt;/font&gt;&lt;div&gt;[%c4Type%]&lt;/div&gt;&lt;br&gt;&lt;div&gt;&lt;font style=&quot;font-size: 11px&quot;&gt;&lt;font color=&quot;#cccccc&quot;&gt;%c4Description%&lt;/font&gt;&lt;/div&gt;" id="hfvlFV7jpzGiQFUbrp5R-14">
          <mxCell style="html=1;fontSize=11;dashed=0;whiteSpace=wrap;fillColor=#083F75;strokeColor=#06315C;fontColor=#ffffff;shape=mxgraph.c4.person2;align=center;metaEdit=1;points=[[0.5,0,0],[1,0.5,0],[1,0.75,0],[0.75,1,0],[0.5,1,0],[0.25,1,0],[0,0.75,0],[0,0.5,0]];resizable=0;" vertex="1" parent="1">
            <mxGeometry x="710" y="-510" width="200" height="180" as="geometry" />
          </mxCell>
        </object>
        <object placeholders="1" c4Name="Servicio de Mapas" c4Type="Google Maps API" c4Description="Provee los mapas interactivos y la información de geolocalización de las canchas" label="&lt;font style=&quot;font-size: 16px&quot;&gt;&lt;b&gt;%c4Name%&lt;/b&gt;&lt;/font&gt;&lt;div&gt;[%c4Type%]&lt;/div&gt;&lt;br&gt;&lt;div&gt;&lt;font style=&quot;font-size: 11px&quot;&gt;&lt;font color=&quot;#cccccc&quot;&gt;%c4Description%&lt;/font&gt;&lt;/div&gt;" id="hfvlFV7jpzGiQFUbrp5R-18">
          <mxCell style="rounded=1;whiteSpace=wrap;html=1;labelBackgroundColor=none;fillColor=#8C8496;fontColor=#ffffff;align=center;arcSize=10;strokeColor=#736782;metaEdit=1;resizable=0;points=[[0.25,0,0],[0.5,0,0],[0.75,0,0],[1,0.25,0],[1,0.5,0],[1,0.75,0],[0.75,1,0],[0.5,1,0],[0.25,1,0],[0,0.75,0],[0,0.5,0],[0,0.25,0]];" vertex="1" parent="1">
            <mxGeometry x="1170" y="-120" width="240" height="120" as="geometry" />
          </mxCell>
        </object>
        <object placeholders="1" c4Name="Servicio de Pagos" c4Type="Flow / WebPay" c4Description="Sistema externo para procesar los pagos de las reservas de forma segura." label="&lt;font style=&quot;font-size: 16px&quot;&gt;&lt;b&gt;%c4Name%&lt;/b&gt;&lt;/font&gt;&lt;div&gt;[%c4Type%]&lt;/div&gt;&lt;br&gt;&lt;div&gt;&lt;font style=&quot;font-size: 11px&quot;&gt;&lt;font color=&quot;#cccccc&quot;&gt;%c4Description%&lt;/font&gt;&lt;/div&gt;" id="hfvlFV7jpzGiQFUbrp5R-19">
          <mxCell style="rounded=1;whiteSpace=wrap;html=1;labelBackgroundColor=none;fillColor=#8C8496;fontColor=#ffffff;align=center;arcSize=10;strokeColor=#736782;metaEdit=1;resizable=0;points=[[0.25,0,0],[0.5,0,0],[0.75,0,0],[1,0.25,0],[1,0.5,0],[1,0.75,0],[0.75,1,0],[0.5,1,0],[0.25,1,0],[0,0.75,0],[0,0.5,0],[0,0.25,0]];" vertex="1" parent="1">
            <mxGeometry x="140" y="-220" width="240" height="120" as="geometry" />
          </mxCell>
        </object>
        <mxCell id="hfvlFV7jpzGiQFUbrp5R-20" style="edgeStyle=orthogonalEdgeStyle;rounded=0;orthogonalLoop=1;jettySize=auto;html=1;entryX=0.5;entryY=0;entryDx=0;entryDy=0;entryPerimeter=0;exitX=0.5;exitY=1;exitDx=0;exitDy=0;exitPerimeter=0;" edge="1" parent="1" source="hfvlFV7jpzGiQFUbrp5R-14" target="hfvlFV7jpzGiQFUbrp5R-17">
          <mxGeometry relative="1" as="geometry">
            <mxPoint x="780" y="-290" as="sourcePoint" />
            <Array as="points">
              <mxPoint x="810" y="-270" />
              <mxPoint x="890" y="-270" />
              <mxPoint x="890" y="-150" />
              <mxPoint x="790" y="-150" />
            </Array>
          </mxGeometry>
        </mxCell>
        <mxCell id="hfvlFV7jpzGiQFUbrp5R-21" style="edgeStyle=orthogonalEdgeStyle;rounded=0;orthogonalLoop=1;jettySize=auto;html=1;entryX=1;entryY=0.5;entryDx=0;entryDy=0;entryPerimeter=0;" edge="1" parent="1" source="hfvlFV7jpzGiQFUbrp5R-18" target="hfvlFV7jpzGiQFUbrp5R-17">
          <mxGeometry relative="1" as="geometry" />
        </mxCell>
        <mxCell id="hfvlFV7jpzGiQFUbrp5R-22" value="Utiliza (HTTPS)" style="text;html=1;align=center;verticalAlign=middle;whiteSpace=wrap;rounded=0;" vertex="1" parent="1">
          <mxGeometry x="820" y="-300" width="60" height="30" as="geometry" />
        </mxCell>
      </root>
    </mxGraphModel>
  </diagram>
</mxfile>
